<?xml version="1.0" encoding="iso-8859-1"?>
<!-- Generator: Adobe Illustrator 19.0.0, SVG Export Plug-In . SVG Version: 6.00 Build 0)  -->
<svg version="1.1" id="Capa_1" xmlns="http://www.w3.org/2000/svg" xmlns:xlink="http://www.w3.org/1999/xlink" x="0px" y="0px"
	 viewBox="0 0 512 512" style="enable-background:new 0 0 512 512;" xml:space="preserve">
<g>
	<g>
		<path d="M499.359,314.777c8.187-9.741,11.87-22.422,10.096-34.923c-5.51-38.816-20.233-76.414-42.579-108.728
			C419.192,102.17,340.362,61.002,256.006,61c-0.004,0-0.009,0-0.013,0C127.323,61.003,17.474,156.428,1.872,280.865
			c-1.544,12.31,2.259,24.761,10.426,34.271C4.683,323.201,0,334.061,0,346c0,57.897,47.551,105,106,105h300
			c58.449,0,106-47.103,106-105C512,333.882,507.177,322.875,499.359,314.777z M349.649,111.138L331,129.787l-35.292-35.291
			C314.428,97.804,332.541,103.413,349.649,111.138z M256,97.213L309.787,151L256,204.787L202.213,151L256,97.213z M216.373,94.415
			L181,129.787l-18.856-18.856C179.227,103.305,197.417,97.703,216.373,94.415z M31.638,284.598
			c8.442-67.326,47.628-124.551,102.799-158.947l25.35,25.35l-34.394,34.394c-5.858,5.858-5.858,15.355,0,21.213
			c5.857,5.858,15.355,5.858,21.213,0L181,172.213L234.787,226l-23.766,23.766c-5.858,5.858-5.858,15.355,0,21.213
			c5.857,5.858,15.356,5.858,21.213,0L256,247.213l23.765,23.765c5.857,5.858,15.356,5.858,21.213,0
			c5.858-5.858,5.858-15.355,0-21.213L277.213,226L331,172.213l34.394,34.394c5.857,5.858,15.356,5.858,21.213,0
			c5.858-5.858,5.858-15.355,0-21.213L352.213,151l25.02-25.02c25.312,15.961,47.513,36.967,64.969,62.209
			c19.708,28.5,32.693,61.655,37.551,95.88c0.802,5.652-1.853,9.693-3.507,11.599c-2.941,3.388-7.171,5.332-11.605,5.332H46.747
			c-4.407,0-8.623-1.913-11.565-5.248C33.565,293.921,30.956,290.037,31.638,284.598z M406,421H106c-41.907,0-76-33.645-76-75
			c0-8.271,6.729-15,15-15h422c8.271,0,15,6.729,15,15C482,387.355,447.907,421,406,421z"/>
	</g>
</g>
<g>
</g>
<g>
</g>
<g>
</g>
<g>
</g>
<g>
</g>
<g>
</g>
<g>
</g>
<g>
</g>
<g>
</g>
<g>
</g>
<g>
</g>
<g>
</g>
<g>
</g>
<g>
</g>
<g>
</g>
</svg>
